<mxfile host="app.diagrams.net" modified="2023-11-17T13:40:48.413Z" agent="Mozilla/5.0 (Windows NT 10.0; Win64; x64) AppleWebKit/537.36 (KHTML, like Gecko) Chrome/119.0.0.0 Safari/537.36" etag="Ha2a7YxzZ2KkuINtvNWq" version="22.1.2" type="device">
  <diagram name="Pagina-1" id="PBC77nqGeM4x4Viu83Xp">
    <mxGraphModel dx="1218" dy="560" grid="1" gridSize="10" guides="1" tooltips="1" connect="1" arrows="1" fold="1" page="1" pageScale="1" pageWidth="827" pageHeight="1169" math="0" shadow="0">
      <root>
        <mxCell id="0" />
        <mxCell id="1" parent="0" />
        <mxCell id="SMer5nKGTv0pbF6GY11d-4" value="Name&lt;br&gt;Chains (+ add manually)&lt;br&gt;Event organizer&lt;br&gt;Public code" style="rounded=1;whiteSpace=wrap;html=1;" vertex="1" parent="1">
          <mxGeometry x="299" y="350" width="120" height="80" as="geometry" />
        </mxCell>
        <mxCell id="SMer5nKGTv0pbF6GY11d-6" value="CREATE | WITHDRAW | MY POOLS" style="rounded=0;whiteSpace=wrap;html=1;" vertex="1" parent="1">
          <mxGeometry x="99" y="170" width="210" height="40" as="geometry" />
        </mxCell>
        <mxCell id="SMer5nKGTv0pbF6GY11d-7" value="" style="endArrow=classic;html=1;rounded=0;" edge="1" parent="1">
          <mxGeometry width="50" height="50" relative="1" as="geometry">
            <mxPoint x="149" y="220" as="sourcePoint" />
            <mxPoint x="109" y="250" as="targetPoint" />
          </mxGeometry>
        </mxCell>
        <mxCell id="SMer5nKGTv0pbF6GY11d-8" value="" style="endArrow=classic;html=1;rounded=0;" edge="1" parent="1">
          <mxGeometry width="50" height="50" relative="1" as="geometry">
            <mxPoint x="179" y="220" as="sourcePoint" />
            <mxPoint x="219" y="250" as="targetPoint" />
          </mxGeometry>
        </mxCell>
        <mxCell id="SMer5nKGTv0pbF6GY11d-9" value="WITHDRAW PAGE&lt;br&gt;(Dinamically displays based on metamask address)" style="rounded=0;whiteSpace=wrap;html=1;" vertex="1" parent="1">
          <mxGeometry x="29" y="260" width="120" height="60" as="geometry" />
        </mxCell>
        <mxCell id="SMer5nKGTv0pbF6GY11d-10" value="CREATE PAGE&lt;br&gt;(Dinamically displays based on metamask address)" style="rounded=0;whiteSpace=wrap;html=1;" vertex="1" parent="1">
          <mxGeometry x="169" y="260" width="120" height="60" as="geometry" />
        </mxCell>
        <mxCell id="SMer5nKGTv0pbF6GY11d-12" value="ADD NETWORK PAGE" style="rounded=0;whiteSpace=wrap;html=1;" vertex="1" parent="1">
          <mxGeometry x="289" y="260" width="120" height="60" as="geometry" />
        </mxCell>
        <mxCell id="SMer5nKGTv0pbF6GY11d-15" value="" style="endArrow=classic;html=1;rounded=0;" edge="1" parent="1">
          <mxGeometry width="50" height="50" relative="1" as="geometry">
            <mxPoint x="228.65999999999997" y="330" as="sourcePoint" />
            <mxPoint x="228.65999999999997" y="360" as="targetPoint" />
          </mxGeometry>
        </mxCell>
        <mxCell id="SMer5nKGTv0pbF6GY11d-16" value="" style="endArrow=classic;html=1;rounded=0;" edge="1" parent="1">
          <mxGeometry width="50" height="50" relative="1" as="geometry">
            <mxPoint x="88.65999999999997" y="330" as="sourcePoint" />
            <mxPoint x="88.65999999999997" y="360" as="targetPoint" />
          </mxGeometry>
        </mxCell>
        <mxCell id="SMer5nKGTv0pbF6GY11d-17" value="EVENT CREATION SUCCESS PAGE" style="rounded=0;whiteSpace=wrap;html=1;" vertex="1" parent="1">
          <mxGeometry x="169" y="370" width="120" height="60" as="geometry" />
        </mxCell>
        <mxCell id="SMer5nKGTv0pbF6GY11d-18" value="ETH SCANNER PAGE" style="rounded=0;whiteSpace=wrap;html=1;" vertex="1" parent="1">
          <mxGeometry x="29" y="370" width="120" height="60" as="geometry" />
        </mxCell>
        <mxCell id="SMer5nKGTv0pbF6GY11d-19" value="" style="endArrow=classic;html=1;rounded=0;" edge="1" parent="1">
          <mxGeometry width="50" height="50" relative="1" as="geometry">
            <mxPoint x="319" y="190" as="sourcePoint" />
            <mxPoint x="409" y="190" as="targetPoint" />
          </mxGeometry>
        </mxCell>
        <mxCell id="SMer5nKGTv0pbF6GY11d-20" value="POOL PAGE&lt;br&gt;(Check balance, add blacklist, add whitelist, delete)" style="rounded=0;whiteSpace=wrap;html=1;" vertex="1" parent="1">
          <mxGeometry x="419" y="160" width="120" height="60" as="geometry" />
        </mxCell>
        <mxCell id="SMer5nKGTv0pbF6GY11d-22" value="" style="rounded=0;whiteSpace=wrap;html=1;" vertex="1" parent="1">
          <mxGeometry x="549" y="160" width="250" height="80" as="geometry" />
        </mxCell>
        <mxCell id="SMer5nKGTv0pbF6GY11d-23" value="POOL 1" style="rounded=0;whiteSpace=wrap;html=1;" vertex="1" parent="1">
          <mxGeometry x="549" y="160" width="250" height="30" as="geometry" />
        </mxCell>
        <mxCell id="SMer5nKGTv0pbF6GY11d-24" value="ARB | BALANCE | TRANSAZIONI* | DELETE&amp;nbsp;" style="rounded=0;whiteSpace=wrap;html=1;" vertex="1" parent="1">
          <mxGeometry x="549" y="190" width="250" height="20" as="geometry" />
        </mxCell>
        <mxCell id="SMer5nKGTv0pbF6GY11d-28" value="PAGES" style="text;html=1;strokeColor=none;fillColor=none;align=center;verticalAlign=middle;whiteSpace=wrap;rounded=0;" vertex="1" parent="1">
          <mxGeometry x="370" y="100" width="60" height="30" as="geometry" />
        </mxCell>
      </root>
    </mxGraphModel>
  </diagram>
</mxfile>
